<svg id="Layer_1" data-name="Layer 1" xmlns="http://www.w3.org/2000/svg" xmlns:xlink="http://www.w3.org/1999/xlink" viewBox="0 0 559.97 599.06"><defs><style>.cls-1{fill:#363;}.cls-2{stroke:#000;}.cls-2,.cls-5{stroke-miterlimit:10;}.cls-3{fill:#fff;}.cls-4{fill:url(#linear-gradient);}.cls-5{fill:#96853c;stroke:#96853c;}.cls-6{fill:#792020;}.cls-7{font-size:30px;font-family:CCAstroCity, CC Astro City;}.cls-7,.cls-8{fill:#600;}</style><linearGradient id="linear-gradient" x1="977.47" y1="871.42" x2="977.47" y2="737.37" gradientUnits="userSpaceOnUse"><stop offset="0.93" stop-color="#db4064"/><stop offset="1"/></linearGradient></defs><circle class="cls-1" cx="292.68" cy="267.64" r="267.28"/><g id="Layer_2" data-name="Layer 2"><circle class="cls-2" cx="178.82" cy="271.19" r="32.1"/><circle class="cls-2" cx="420.18" cy="271.19" r="32.1"/><circle class="cls-3" cx="178.82" cy="271.19" r="13.27"/><circle class="cls-3" cx="420.18" cy="271.19" r="13.27"/><path d="M926.48,737.37h96.39S969.16,750.81,926.48,737.37Z" transform="translate(-667.32 -272.36)"/><path class="cls-4" d="M960,737.37s23.1,20.68,16.13,59.73,1.31,74.32,1.31,74.32l5.95-11.32,9.58,7.55s-9.15-29.91,0-71.13-16.49-59.15-16.49-59.15Z" transform="translate(-667.32 -272.36)"/><path class="cls-5" d="M882.7,284.07s72.24-25.23,154.6,0L960,345.84l-9.9-7.74,3.29-14.71-7.94,10.26,1.94-10.46-6,6.39,1.35-4.64-2.9,2.32Z" transform="translate(-667.32 -272.36)"/><path class="cls-6" d="M888.28,386.48c.2.92.91.38,1.09.48C888.74,385.47,888.08,386.58,888.28,386.48Z" transform="translate(-667.32 -272.36)"/><polygon class="cls-6" points="213.9 100.19 214.32 100.3 212.6 98.6 213.9 100.19"/><path class="cls-6" d="M874.4,359.89c-.52,1.92,2.94,4.3,3.65,6.86l-.09.52,1.57.49c-.84-1.33-1.84-2.83-2.85-4.19A18.35,18.35,0,0,1,874.4,359.89Z" transform="translate(-667.32 -272.36)"/><path class="cls-6" d="M872.47,351.75c-.15.72-1.4-1.08,1,1.58a3.07,3.07,0,0,1-.08-.35C873.15,352.73,872.89,352.37,872.47,351.75Z" transform="translate(-667.32 -272.36)"/><path class="cls-6" d="M873.35,353c1,1.23-.24-1.1,0,0Z" transform="translate(-667.32 -272.36)"/><path class="cls-6" d="M868.66,347.51l1.69,1.27c0-.53-1.14-2-.52-1.63C868.27,345.69,868.31,346.24,868.66,347.51Z" transform="translate(-667.32 -272.36)"/><path class="cls-6" d="M866.61,346.72c.3.21.58.43.85.66C867.45,347.14,867.31,346.89,866.61,346.72Z" transform="translate(-667.32 -272.36)"/><path class="cls-6" d="M869.23,348.82l-1.77-1.44c0,.37-.32.69.78.68C867.8,348.2,868.39,348.27,869.23,348.82Z" transform="translate(-667.32 -272.36)"/><path class="cls-6" d="M869.87,349.93c.49,1.07,1.2,2.37-.42,1.07,1.26,1.46,2,2,2.09,1.69S871.19,351.38,869.87,349.93Z" transform="translate(-667.32 -272.36)"/><path class="cls-6" d="M872.75,360.09c.16.48.32,1,.44,1.46l1.07.84a4.85,4.85,0,0,1-.81-1.44C873.18,360.38,872.91,359.93,872.75,360.09Z" transform="translate(-667.32 -272.36)"/><path class="cls-6" d="M860.35,337.74c-.31.14,0,1.06-.2,1.45.46.24.89.52,1.33.79C861.09,339.27,860.12,338.15,860.35,337.74Z" transform="translate(-667.32 -272.36)"/><path class="cls-6" d="M860.15,339.19l-2-1.13C859.58,339.45,860,339.52,860.15,339.19Z" transform="translate(-667.32 -272.36)"/><path class="cls-6" d="M865.18,347.5c1.11.63,2.12,1.37,3.19,2.07-1.21-.89-2.4-1.78-3.67-2.58Z" transform="translate(-667.32 -272.36)"/><path class="cls-6" d="M853.75,332.06l1.44.27c-.81-.23-1.64-.42-2.47-.59Z" transform="translate(-667.32 -272.36)"/><path class="cls-6" d="M849,328.74c1.14.06-.53-1.54.52-1.27a13.28,13.28,0,0,0-4-1.42A9.06,9.06,0,0,1,849,328.74Z" transform="translate(-667.32 -272.36)"/><path class="cls-6" d="M843.42,325.56a16.8,16.8,0,0,0,2.08.49A8.11,8.11,0,0,0,843.42,325.56Z" transform="translate(-667.32 -272.36)"/><path class="cls-6" d="M855.34,335.44a2.46,2.46,0,0,0-.82-1.8l.15,1.23Z" transform="translate(-667.32 -272.36)"/><path class="cls-6" d="M854.67,334.91v0l-1.45-1.25Z" transform="translate(-667.32 -272.36)"/><path class="cls-6" d="M855.51,335.59l-.17-.15C855.35,335.56,855.38,335.61,855.51,335.59Z" transform="translate(-667.32 -272.36)"/><path class="cls-6" d="M861.77,342.74c-1.27-.6-3.52-2.12-2.19.24C860.65,343.21,859.88,341.86,861.77,342.74Z" transform="translate(-667.32 -272.36)"/><path class="cls-6" d="M855.67,337.1c.56.55,1.08,1.14,1.63,1.71.11-.2,0-.73.66-.47C857.19,337.92,856.45,337.48,855.67,337.1Z" transform="translate(-667.32 -272.36)"/><polygon class="cls-6" points="187.28 64.21 188.35 64.74 187.72 64.13 187.28 64.21"/><path class="cls-6" d="M846.47,328.43a6.67,6.67,0,0,1-1.54-.61c-.51-.25-1-.54-1.6-.84,1.09.82,2.2,1.69,3.31,2.43C846.94,329.3,847.71,329.23,846.47,328.43Z" transform="translate(-667.32 -272.36)"/><path class="cls-6" d="M850.5,331.54l-.21-.1C850.36,331.59,850.43,331.67,850.5,331.54Z" transform="translate(-667.32 -272.36)"/><path class="cls-6" d="M832.31,321.06l.11.22.11-.11Z" transform="translate(-667.32 -272.36)"/><path class="cls-6" d="M846.74,329.67a3.46,3.46,0,0,0,2,1,24.19,24.19,0,0,1-2.11-1.25C846.5,329.47,846.44,329.53,846.74,329.67Z" transform="translate(-667.32 -272.36)"/><path class="cls-6" d="M840.18,324.11c.39.41.85.84,1.32,1.3C841.19,324.89,840.46,324,840.18,324.11Z" transform="translate(-667.32 -272.36)"/><path class="cls-6" d="M850.15,331l.14.07C850.13,330.76,850.11,330.85,850.15,331Z" transform="translate(-667.32 -272.36)"/><path class="cls-6" d="M850.15,331a7,7,0,0,0-1.4-.38,12.41,12.41,0,0,0,1.54.78A1.19,1.19,0,0,1,850.15,331Z" transform="translate(-667.32 -272.36)"/><path class="cls-6" d="M826.72,324.62c.23-.33,1-.42,1.95-.21a5.44,5.44,0,0,1,2.84,1.6c2.22.41,2.11-2.53.91-4.73-.21.3-.33.54-2.66.07.61.66,4.23,3.07,2.17,2.88a5.94,5.94,0,0,1-2.31-1.11,8,8,0,0,0-1-1.15c.76,1.38-4.1-.16-4,1.48.88.12,1.74.33,2.6.5C827.14,324.18,826.14,324.15,826.72,324.62Z" transform="translate(-667.32 -272.36)"/><path class="cls-6" d="M836.41,323.31l.9.38a14.8,14.8,0,0,1-2.52-2.48c-1.63-.35-2-.23-2.26,0,1.41.73,2.84,1.42,4.23,2.2Z" transform="translate(-667.32 -272.36)"/><path class="cls-6" d="M841.11,325.78c-1.07.33-3.28-.4-2.49,1.07,2.45,1.31,2,.37,3.67.9-4-2.17,1.37.26-1.2-1.86a19.54,19.54,0,0,1,2.24,1.09c-.65-.52-1.27-1.05-1.83-1.57l.06.1h0c.12.2.14.29,0,.12l-.09,0a1,1,0,0,1-.34.17c-1-.84-.07-.3.34-.17,0,0,.08-.05.11-.09h0c-1.39-.68-2.84-1.22-4.25-1.82A35,35,0,0,0,841.11,325.78Z" transform="translate(-667.32 -272.36)"/><path class="cls-6" d="M856.6,342.67a.22.22,0,0,1,0-.24C856.35,342.31,856.22,342.29,856.6,342.67Z" transform="translate(-667.32 -272.36)"/><path class="cls-6" d="M855.61,341.07a2.38,2.38,0,0,1,1.46.82c.5.8-.28.3-.44.54.62.24,2,1.05.88-.61l-.31-.12c-1.12-1.41-2.14-3.79-1.83-3.67A6.8,6.8,0,0,0,855.61,341.07Z" transform="translate(-667.32 -272.36)"/><path class="cls-6" d="M848.6,333.21c-1.07-.65-2.2-1.21-3.31-1.79l1.15,1.67.18-.42C848.24,334,848.18,333.34,848.6,333.21Z" transform="translate(-667.32 -272.36)"/><path class="cls-6" d="M832.09,320.48l.84-.61c-.85.05-1.72.18-2.56.28Z" transform="translate(-667.32 -272.36)"/><path class="cls-6" d="M827.45,318.62l.46-.66c-.46,0-.94,0-1.41,0Z" transform="translate(-667.32 -272.36)"/><path class="cls-6" d="M725.09,480.42l.88.55A5.58,5.58,0,0,0,725.09,480.42Z" transform="translate(-667.32 -272.36)"/><path class="cls-6" d="M720,475l-.42.13C720,475.27,720.23,475.27,720,475Z" transform="translate(-667.32 -272.36)"/><path class="cls-6" d="M714.92,344c-1.64.71-3.75,1.34-2.95,1.77l1,.2A7.29,7.29,0,0,1,714.92,344Z" transform="translate(-667.32 -272.36)"/><path class="cls-6" d="M692.68,420.44l.22-.47-.86-1C692.24,419.41,692.42,419.92,692.68,420.44Z" transform="translate(-667.32 -272.36)"/><path class="cls-6" d="M696.36,421.26l-.39,2A9.71,9.71,0,0,0,696.36,421.26Z" transform="translate(-667.32 -272.36)"/><path class="cls-6" d="M759.45,500.6c.46-.14.93-.28,1.39-.45C759.11,499.57,759.73,500.24,759.45,500.6Z" transform="translate(-667.32 -272.36)"/><path class="cls-6" d="M777.31,312.52a18.76,18.76,0,0,0-3.58,0C775.51,312.75,777,313.3,777.31,312.52Z" transform="translate(-667.32 -272.36)"/><path class="cls-6" d="M716.42,484.76c.6.38.93.46,1.05.31C716.87,484.68,716.47,484.51,716.42,484.76Z" transform="translate(-667.32 -272.36)"/><path class="cls-6" d="M769.7,313.23c.26,0,.51,0,.77.06a15.1,15.1,0,0,1,3.26-.8A5.65,5.65,0,0,0,769.7,313.23Z" transform="translate(-667.32 -272.36)"/><path class="cls-6" d="M877.29,443.83a2.83,2.83,0,0,1,.2-.28C877.39,443.48,877.34,443.62,877.29,443.83Z" transform="translate(-667.32 -272.36)"/><path class="cls-6" d="M890.1,400.74c.12.44.22,1.19.33,1.88A6.76,6.76,0,0,0,890.1,400.74Z" transform="translate(-667.32 -272.36)"/><path class="cls-6" d="M808.25,312.72c1,.14.18-.07,0,0Z" transform="translate(-667.32 -272.36)"/><path class="cls-6" d="M812.52,317.12a.6.6,0,0,0-.5.33A.76.76,0,0,1,812.52,317.12Z" transform="translate(-667.32 -272.36)"/><path class="cls-6" d="M761.06,321l-.09,0C761.31,321.08,761.25,321.07,761.06,321Z" transform="translate(-667.32 -272.36)"/><path class="cls-6" d="M809.74,313.43a9.16,9.16,0,0,0-1.28-.53C808.66,313,809.05,313.17,809.74,313.43Z" transform="translate(-667.32 -272.36)"/><path class="cls-6" d="M809.61,313l.89.27C810.66,313.14,810.56,313,809.61,313Z" transform="translate(-667.32 -272.36)"/><path class="cls-6" d="M806.78,312.53a13.4,13.4,0,0,1,1.68.37q-.3-.15-.21-.18Z" transform="translate(-667.32 -272.36)"/><path class="cls-6" d="M826.33,501.42h.23C827.33,500.71,827,500.93,826.33,501.42Z" transform="translate(-667.32 -272.36)"/><path class="cls-6" d="M707,370.55s0-.07,0-.11l-.1.11Z" transform="translate(-667.32 -272.36)"/><path class="cls-6" d="M706.06,373.93a3.38,3.38,0,0,1,.88-3.38c-.91-.05-1.85-.1-2.77-.12C704.79,371.62,705.42,372.79,706.06,373.93Z" transform="translate(-667.32 -272.36)"/><path class="cls-6" d="M739,491.25l-1.56-2c3.11.56,4.56,2,3.32-.1-.86,1-2.86-.14-4.75-1.46a18,18,0,0,0-2.73-1.7c-.81-.41-1.51-.53-2-.06l-.87-1.44c.34.3.49.23.82.53-1.53-2.93-3,0-5.78-3-.88-1.11-1.27-2.1-.38-1.65l-2.67-1.73c-.6-.68-.11-.84.49-.17-1.16-1.07-2.24-2.23-3.37-3.34l.08,0a17.71,17.71,0,0,1-3-1.41c-.47-1.19.62.29.68-.16-.73-.55-1.48-1.08-2.19-1.65,0-.65.4-.64,1-.28a6.66,6.66,0,0,1,1.89,1.75c.27-1.81-.2-2.1-1-2.6a6.48,6.48,0,0,1-2.8-3.84c.55.61,1.15,1.18,1.73,1.77a4.89,4.89,0,0,0-.61-2.84,18.53,18.53,0,0,1-1.33-3.34c-.08.77,1.06,5.92-1.07,4a5.63,5.63,0,0,0-2.09-2.7c.81-.53-.15-1.68-1.17-3.25l1.18-.54c-1.36-1.52-1.78-1.1-2.87-1.87a3.17,3.17,0,0,1,.24-3.75c-1.34-3.31-.37,2.94-2.4-.8a16.05,16.05,0,0,0-.74-2,15.75,15.75,0,0,0-.88-1.8c-.66-1.19-1.54-2.38-2.47-4-.29-2.15.86.08.95-.76l-1.59-1.42c-.13-.45.21-.4.39-.38-.87-1.38-1.26.28-2.32-2-.76-.12-.68-1.51-.61-3.18s.07-3.58-1-4.94c.21-.82.84.2,1.28-.13-.91-2-1.27-2.82-1.66-3.58s-.73-1.43-1.68-3.08c.14-1,.27-2.05.48-3.07-.76,2.29-2.13-.37-3.29-2.84-.39.83-.73,1.55-.89,2-.35-1.33-.71-2.67-1-4,.19-.51.65-.11,1.21.53-.12-.27-.23-.53-.34-.73.42-1.48,1.18-.74,1.94.25L692.9,420c.87.95,1.81,1.78,2.53,1.52a3.74,3.74,0,0,1-.45-1.26c.23.24.43.39.55.26s-.22-.52-.56-1.15l1.4-1-.58-.19c.23-1.71.45-3.41.8-5.09-.34-.91-.74-1.8-1.13-2.72s-.71-1.87-1-2.89a17.42,17.42,0,0,1-.78-3.36,21.11,21.11,0,0,1-.2-4.08c.8,1.61,1.64.55,2.85.81-.78.69-.73,1.84-.62,3.17.06.66.13,1.37.2,2.1a8.69,8.69,0,0,1,0,2.22c.24-1.56.81-1.16,1-.76-.33-1.79-.47-3.59-.68-5.43,1,.25.87-1,1.53-2.33-1.08.37-1.25-.67-1.18-2.09s.5-3.19.4-4.34c.68,0,1.25.67.54,3.23,1-1.28.66-2.31.25-3.37s-.79-2.14.2-3.39c-.15.64-.34,1-.07,1.29a7.44,7.44,0,0,1,.58-3.05c.38-.95.87-1.55,1-1.05l-.18.63c.38-1,.82-2.3,1.24-3.69s.95-2.81,1.32-4.19c.84-2.7,1.34-5.09.72-5.74a9.2,9.2,0,0,1,1.84,1.74,91.32,91.32,0,0,1-1.59-9.59c1,1.29,5.24.69,4.27,4.22a10,10,0,0,0,2.1-3.91c-.54.48-2.73.45-2.35-.45,2.79-1.44,1.68-1.18,4.59-3.16-.84.7-2.12-1.51-1.1-2.88.13.41,1.94,1.15,1.8,1.79.14-1.56.3-3.15.55-4.7-.3,1.08,1.44,1.27,2.49.92-.3,0,.24-.67.91-1.51a20.62,20.62,0,0,0,1.82-2.25l-1.52,1a6.73,6.73,0,0,0,1.9-4.49,6.43,6.43,0,0,1,2-4.54c-.09.73,1.08,3,2.93,1.5a26.87,26.87,0,0,1,.09-4.72,12.24,12.24,0,0,1,2.32-6.19l1.06,0c.7-.89,1.39-1.81,2.15-2.66-.34,1.28-1,3.62-1.74,5.91s-1.41,4.72-2,6.23c1.63-.8.88.24,2.75-1.54,1.08-.15-.41,1.63-.94,2.16,1.56-1.23,3.09-2.49,4.72-3.61-.53-.43.14-1.42.84-2.39s1.49-1.86,1.07-2.24c-1.52,1.65-2.87,3.46-4.25,5.17-.54-.42-.44-1.74.27-3.31a10.4,10.4,0,0,1,1.52-2.42,12,12,0,0,1,2.4-2.12c1.2-.23.73,2.44,1.08,2.74a5.6,5.6,0,0,1,1.52-1.82,5.08,5.08,0,0,1,1.82-1.19l-1.11,1.6a5.84,5.84,0,0,0,2.36-2.23,4.32,4.32,0,0,1,3.06-1.82c.89-.47,3.41.06,3.18-.71-2.14-.6-4.83-4.55-4.37-6.1.19,0,1.6-.38,3.11-.68a15.63,15.63,0,0,1,3.88-.39c2,.38-1.05,3.67.69,4-.1-.36.52-1.15.81-1.45,1.08-.17.09,1.22,2.07.09-.2-1.39,4.34-1.66.54-1.47a6.1,6.1,0,0,1,2.18-.91,17.1,17.1,0,0,0,2.56-.74c-.54-.27-.25-1.17.46-2.15a8.45,8.45,0,0,1,2.89-2.57c0,.37.61.65.91.78,1.14-.31,2.15-.55,3.1-.75s1.85-.29,2.72-.42l2.65-.4c.92-.11,1.89-.25,3-.45.46.24,2.58.26,1.8,1a5.45,5.45,0,0,1,2.38-1.08c2.71.82-2.91.59-.76,1.73.05-.79,3.23-1.62,5.09-2.21-.35-.57-1.47-.58-2.71-.25a30.21,30.21,0,0,0-3.51,1.27c-.14-.83.55-1.8,1.86-2.74a13.43,13.43,0,0,1,2.41-1.35,24.1,24.1,0,0,1,3.17-1c1.86-.4,2.28-.08,2.32.2s-.32.62,0,.49a13.86,13.86,0,0,0,4-.46,13.55,13.55,0,0,0,2.37-.87,6.77,6.77,0,0,1,5.52-.31c2.25,1.22,0,2.14.42,2.95a10.72,10.72,0,0,1-3.66-.4,12.8,12.8,0,0,0-3-.49l2.5.54a8.31,8.31,0,0,1-4,.27,8.52,8.52,0,0,0,2.7.48c.63.05,1.33.07,2.08.11l2.38.18c.82.07,1.68.11,2.53.2l2.53.35a23.7,23.7,0,0,1,4.48,1c1-.2,2.65-.31,2-.86l-1.69-.12c-1.4-1.1,3.36-.67,1.31-1.42a30.34,30.34,0,0,1,3.82-.21,14.43,14.43,0,0,1,2.12.2,12.93,12.93,0,0,1,2.22.71l.27,1.34c0-.36-1.86-1.25-2.83-1.11.72-.1,1.82.63,3,1.22a7.67,7.67,0,0,0,1.69.68,2,2,0,0,0,1.54-.14c-.64-.49-1.28-1-1.94-1.47,1.21,0,2.58,0,4,0a9.7,9.7,0,0,1,4.2,1.05c-.85-1.6-.67-.11-2.18-2.16,1.17,2.21-7.19-2.33-4.94.31a5.46,5.46,0,0,0-2.6-1.87,12.44,12.44,0,0,1-3.2-1.76c0,.41.81,1-1.58.25a2.22,2.22,0,0,1-.61.24l-.15-.06.12.07c-.12,0-.13.05,0,0a2.87,2.87,0,0,1,1.1.86,8.34,8.34,0,0,1-3.28.21,19.44,19.44,0,0,0-3.27,0c-1.4-.42.66-.37-.05-.92-.69.13-1.36.27-2,.45-.07-.91-3.69-1.92-.19-2.06l-3.1-.38a12.69,12.69,0,0,0-5.9-.7c-1.48-.21-3.74.95-2.45.26-.82.09-1.63.16-2.45.26l-2.43.37-.05-.22a47.25,47.25,0,0,0-7.38,1,26.83,26.83,0,0,1-7.95.6c-.77.27-1.56.54-2.48.8a21.18,21.18,0,0,1-3.33.75l-.7-.63a33.4,33.4,0,0,1-4,.92c-1.4.29-2.65.58-2.94,1.14a4.73,4.73,0,0,0-2.77,0,15.3,15.3,0,0,0-1.76.5c-.61.22-1.23.49-1.85.78-1.25.58-2.54,1.17-3.69,1.8a26.61,26.61,0,0,1-3.09,1.47l.32,1a22.66,22.66,0,0,0-3.33,1.89c-.55.36-1.11.74-1.69,1.15s-1.15.89-1.77,1.38l.62.67a16.49,16.49,0,0,1-4.22,2.6c-.86.44-1.77.88-2.69,1.37a23.52,23.52,0,0,0-2.62,1.76c0-.45.94-1,1.68-1.31a9.75,9.75,0,0,0-3.52,1.81,25.05,25.05,0,0,0-2.79,2.85c-.88,1-1.66,2.05-2.53,2.95a11.23,11.23,0,0,1-2.86,2.23,4.76,4.76,0,0,1-2,2,1.18,1.18,0,0,0,.17-.24l-.35.33a13.55,13.55,0,0,0-1.44.83,9.31,9.31,0,0,0,1.27-.65,21,21,0,0,0-2.13,2.85L713,346l-.18.25c-1.14.73-.35,1.06.65,1a6.8,6.8,0,0,0-.67,1.69c-.93-.1-1.37.65-1.86,1.43s-1,1.57-2.06,1.65c0,.6-.81,2-1.56,3.46s-1.26,3-.74,3.76c-.21-.08-.51.18-.13-.41a7.66,7.66,0,0,0-2.15,3.57l-1.36-.11-.11,1.77,0,1.78c-1.56,1.3-2.34,1.83-2.25-.31-.23,1.19-.43,2-.6,2.62s-.28,1.06-.4,1.48a14.57,14.57,0,0,0-.63,3.62l-.65-.5c-.52,1.3-.41,3.75-1.34,4.27a11.14,11.14,0,0,0-2,3.37c-.73,1.57-1.3,3.58-2,5.71-1.24,4.32-2.37,9.28-3.62,13.19,1.28-.6.86.28.38,1.4s-1,2.49-.12,2.74c-.6.41-1,1.51-1.37.15a32.64,32.64,0,0,1-.43,5,6.22,6.22,0,0,0,.56,4.08c-.56.47-.79-.9-1.13-.48.12.34.47,1.33.13,1.76s-.45-.61-.69-1.28a9.34,9.34,0,0,0,.32,2.55,3.63,3.63,0,0,0,.84,1.44,3.85,3.85,0,0,0,2.29.93,6,6,0,0,0-.37,2.58,4.29,4.29,0,0,0,1.05,2.05c-.45.77-.89,2-1.3-.53,0,.37,0,1.12,0,2,0,.45,0,.95.06,1.47s.1,1,.17,1.55c.26,2.06.66,3.93,1.34,3.89a4.24,4.24,0,0,0,.5,2.37c.26,1.61.39,2.49.6,3.35s.39,1.71.83,3.25v-.91c1.76.84,1,2.46,1.93,4.88l-.17,0a13.88,13.88,0,0,0,.55,3,4.93,4.93,0,0,0,.5,1.14,4.09,4.09,0,0,1,.47,1.13c.15.58.34,1.45.61,2.92l.77-.65c1.06-.14,1.26,1.15,1.46,2.84s.56,3.76,1.64,5.12l0-1.35c.69.69.68,2.12.56,3.65s-.32,3.18.08,4.05c.06.44-.6-.41-1-.86,1.5,4.92,1.41-.06,3.56,2.94-.21.94-1.95.17-.71,2.36.13.67,1.6,1.9,3.14,3.35a21.65,21.65,0,0,1,2.32,2.27,8.73,8.73,0,0,1,1.53,2.51c-.07-.91-.12-1.79,1.26-.73.92.93,1.6,2.65,2.57,4.12s2,2.89,3.43,3.12c.13.34.12.52,0,.62.87.55,2.11,1.61,3.4,2.45a9.56,9.56,0,0,0,3.26,1.64c-.22.95.37,1.8,1.3,2.64a16.55,16.55,0,0,0,3.5,2.29,32.91,32.91,0,0,1,3.31,1.91c.82.57,1.21,1.15.77,1.78.87.54,1.72,1.12,2.61,1.63l2.67,1.52-.3.19a12.26,12.26,0,0,0,3.89,1.87,8.23,8.23,0,0,0,2.55.25c.72.58,0,.55-.14.66a22.86,22.86,0,0,0,5.22,2.75,19.4,19.4,0,0,0,5.3.71l.11,1.1c.71,0,2.5,1.06,4.92,2.11.6.27,1.23.56,1.89.82s1.37.46,2.08.66a15,15,0,0,0,4.33.7.9.9,0,0,1-.7.31c3.22.12,6.81,1.47,10.08,2.23s6.1,1,7.34-.73c1.4-.18,2.79-.52,4.17-.78-5.32-.35.81-1.56-1.36-2.19a7.37,7.37,0,0,1,3.12.53c.76.3,1,.68-.32.78l-.4-.18c-.94,2,6.61.49,6.55,1.71,5.28-.4,10.48-1,15.58-1.87A81.55,81.55,0,0,0,827,508.62c-.53-.31-1.06-.61-1.59-.94,1.08-.38,2.15-.82,3.22-1.22,1,0,1.58.58-.74,1.48,1.54.27,3.58-2.24,3.48-2.59,4.64-1.53-1,2.36.35,1.76l1.8-1-.49,0c.62-.62.89-1.09,1.35-1.55a9.37,9.37,0,0,1,2.41-1.61c1.8-.63,1.28.34,2,0,0,.09.3,0,1-.5,1.29-.7,2.56-1.44,3.85-2.16l-2.11-.08c1.37-1.47,3.53-2.07,1.13-2.13,1.76.08,5.29-2,8.4-4.4,1.57-1.17,3-2.47,4.2-3.45a15.43,15.43,0,0,1,2.49-2,16.23,16.23,0,0,1,1.17-1.72c.41-.56.84-1.11,1.31-1.64.93-1.06,2-2.07,3.14-3.27-.72.44-2-.09,0-2.06.64,1.27,1.77.54,3-.67s2.72-2.76,4.15-3.14c-1.12.45,0-1.24,1-2.84s1.74-3.19.11-2.36c1.5-1.83.91.45,2.44-.7a38.17,38.17,0,0,1,2.11-4l2.59-4.06c.44-.7.92-1.39,1.36-2.12l1.27-2.24a30.42,30.42,0,0,0,2.18-4.78c-.28-.23-1.23.64-1.13-.94,1-.9,2-1.86,3-2.83.16-.69-.2-1.16-.36-1.7s-.1-1.16.86-2.19c-.39.26-1,.62-.81-.3,2.94-6.25,4.1-13.31,4.68-20.31s.61-14,1.48-21.18c-.51,2-.69.7-.85-.74-.07,1-.86.08-1.32.32.17-2,.38-4,.48-6-.75-.41-1.06-1.94-1.36-3.41s-.7-2.88-1.37-3l.66,1.74c-1-1-1.61,0-2.24,1.24s-1.33,2.73-2.3,2.74a3.15,3.15,0,0,1,.78,2.13,20.87,20.87,0,0,1-.29,2.78c-.23,2-.51,4.08.88,6.1-.3,1-.68-.75-1.08-.22.94,1,1.13,2.31.86,4.72l-.22-.27a31.65,31.65,0,0,1,0,4.47,30.47,30.47,0,0,1-.44,3.79c-.19,1.24-.41,2.51-.74,3.91s-.6,3-1.07,4.78l1-.4a7.77,7.77,0,0,1-1.09,2.57c1.12,2.09.81-4.48,2.1-2.56a5.14,5.14,0,0,0-1.27,2.56c-.32,1.16-.67,2.53-1,3.88a20.67,20.67,0,0,1-1.13,3.69c-.44,1-.92,1.78-1.57,2-.76,2.35,1.27-.38.51,2l-.77.44.54.84c-.6,1.53-1.65,2-2.12,1.92a7.83,7.83,0,0,0,.36-1.5,10.33,10.33,0,0,0-1.48,3.52,11.28,11.28,0,0,1-.9,2.65c.42-.68.85-1.36,1.26-2.05-.53,1.6-1.14,3.28-1.88,4.94s-1.55,3.36-2.46,5c-.43.82-.86,1.65-1.29,2.46s-.9,1.6-1.32,2.39c-.81,1.62-1.68,3.13-2.34,4.67l.65-.16a12,12,0,0,1-1.42,2.49,9.85,9.85,0,0,1-1.18,1.31,23.23,23.23,0,0,0-3.28,3.75l.05-.22a9.1,9.1,0,0,1-2.25,3.49c.55-1.39-2.5,1.25-1.7-.5-1.52,2.28-1.93,2.84-2,3.36a9,9,0,0,1-.76,2.77l-1.13,0a10.21,10.21,0,0,1-.57,1.58,7.46,7.46,0,0,1-1.73,2.07c1.36-1.94-2.09.26-.67-2a12.15,12.15,0,0,0-3.24,2.07,21.24,21.24,0,0,0-2.13,2.08c-1.2,1.32-2.24,2.26-4,2-.53,1.59.66,1.13,1.88.42s2.38-1.76,1.92-1.12c.7-.11.48.53-.12,1.32a9.26,9.26,0,0,1-2.48,2.08c-.79.51-1.81.41-3.14.43a9.78,9.78,0,0,0-2.2.3,8.38,8.38,0,0,0-1.28.43,11.29,11.29,0,0,0-1.44.67c.41-.21.36-.36.77-.57a5.65,5.65,0,0,0-2.27,1.28,7.88,7.88,0,0,1-1.18.75,4.09,4.09,0,0,1-1.5.37c-.54,1.63-2.51,1.11-2.18,2.71l3.72-2.17c-1,.7-1.82,1.72-2.91,2.68a9.12,9.12,0,0,1-4.55,2.12,8.18,8.18,0,0,1,1.8-1.8c-1.26,0-2,1.19-3.29,1.13-.1-.78,1.07-1.33,2.5-2,.72-.32,1.51-.65,2.23-1a6.8,6.8,0,0,0,1.81-1.44c-.71,0-1.66.76-2.43,1.25s-1.3.73-1-.3c-.42,1.35-1.52,1.72-2.76,2.09a7,7,0,0,0-3.91,1.93l-.1-1a6.49,6.49,0,0,1-2.14,1.27l1.2-1.64c-2.11,1.71-4.87.54-7,1.61,2.43-.6,2.78-.41,2.8,0s-.29,1,.84,1c-5.82,2.78-4.08-1.41-10.74.3.89-.27,3.55-.09,2.19.62a10.25,10.25,0,0,1-4-.42c-4.51.83.83.87-1,1.72-1.69-.9-2.2.72-4.22,1.28l-.09-1a8.16,8.16,0,0,0-2.52.22,1.2,1.2,0,0,0-.72.67c-.26.49-.47,1-2.9.69l2-1.42c-.82.14-1.64.32-2.47.43l.5-1.1a10.7,10.7,0,0,1-3.1.54,15.26,15.26,0,0,1-3-.39c.58.72-.44,1.73-2.81,1.62-1.56-.71,1-.81-2.36-1,.82-.54,1.68-1.13,3.05-.19.17-.3.78-.56.95-.86-1.66-.71-4.24-.54-5.43-.65a4.32,4.32,0,0,1,1.25.37c-.81.13-1.63.27-2.46.39l-2.48.27c-.69-.47,0-.66.59-.85a21.12,21.12,0,0,1-3.14.1,2.44,2.44,0,0,1,2.6-1.54c-1.53.08-3.06,0-4.6,0-.23-.39-2-1.41-1.41-1.56a12.37,12.37,0,0,0-4.39-.64,11.7,11.7,0,0,1-4.91-1.17,2.53,2.53,0,0,1-1.29,0c-.72-.31-1.41-.66-2.08-1s-1.32-.77-2-1.13a15.46,15.46,0,0,0-2.18-1,12.15,12.15,0,0,0-2.57-.72c-.42-.74-.86-1.43-1.24-2.19-2.7-1.1,1.7,2.94-2.83,1.09-3.27-1.27-.55-1.66-1.4-2.6a19.28,19.28,0,0,1-3.5-.72,7.62,7.62,0,0,1-3.63-2.64A17.17,17.17,0,0,1,739,491.25ZM713,466.59c.28.24.74.56,1.11.91s.68.7.6,1.08C713.29,468.59,713.35,467.77,713,466.59Zm-18.64-51.73a2.93,2.93,0,0,1-.13,2.3A5.25,5.25,0,0,1,694.32,414.86ZM796.64,312.08l-.09,0C794.86,311.64,795.46,311.83,796.64,312.08Zm3.51.72c.37-.09.36-.23.22-.38a3.39,3.39,0,0,1-2,0C798.64,312.67,799.07,312.9,800.15,312.8Zm38.74,189.76-.73.11C839.39,501.69,839.13,502.12,838.89,502.56Z" transform="translate(-667.32 -272.36)"/><path class="cls-6" d="M695.93,421.15a.86.86,0,0,1-.5.34C695.62,421.76,695.81,421.74,695.93,421.15Z" transform="translate(-667.32 -272.36)"/><path class="cls-6" d="M759.19,500.68l.1.05a.42.42,0,0,0,.16-.13Z" transform="translate(-667.32 -272.36)"/><path class="cls-6" d="M750,329.3a3.29,3.29,0,0,1-1.39.11C748.71,329.64,749.08,329.69,750,329.3Z" transform="translate(-667.32 -272.36)"/><path class="cls-6" d="M819.06,314.87c-.76-.16-1.53-.26-2.29-.38a4.37,4.37,0,0,1,1.91.86C818.69,315.12,818.36,314.67,819.06,314.87Z" transform="translate(-667.32 -272.36)"/><path class="cls-6" d="M834.85,327.7c.34.05.6.31.93.35l.14-.43C834.7,327,833.71,326.86,834.85,327.7Z" transform="translate(-667.32 -272.36)"/><path class="cls-6" d="M820.12,318.57c-.08.85,1.36.93,2.86,1.36l-.26-.09C823.54,318.92,821.83,318.69,820.12,318.57Z" transform="translate(-667.32 -272.36)"/><path class="cls-6" d="M823.33,320a10.07,10.07,0,0,1,1.37.48C825,320.15,824.18,320.22,823.33,320Z" transform="translate(-667.32 -272.36)"/><path class="cls-6" d="M804.7,312.82c.72.33.63-.95,1-.55.5-.44-.81-.34-1.71-.1S802.61,312.77,804.7,312.82Z" transform="translate(-667.32 -272.36)"/><polygon class="cls-6" points="153.17 49.13 152.96 48.02 151.89 48.53 153.17 49.13"/><path class="cls-6" d="M809,317.68l2.34.78c0-.17.33-.21.72-.2C810.58,317.91,809,317.37,809,317.68Z" transform="translate(-667.32 -272.36)"/><path class="cls-6" d="M812.05,318.26a7,7,0,0,0,2,.33A11.2,11.2,0,0,0,812.05,318.26Z" transform="translate(-667.32 -272.36)"/><path class="cls-6" d="M817.22,320.77l-.63-.41-1.64-.51C815.71,320.16,816.48,320.42,817.22,320.77Z" transform="translate(-667.32 -272.36)"/><path class="cls-6" d="M782.67,315.83l-2.65.52c-.23.37.51.51,1.49.29C782.12,316.34,783.11,316.12,782.67,315.83Z" transform="translate(-667.32 -272.36)"/><path class="cls-6" d="M790.77,318.33c-.71-.22-.75-.44-1.15-.78l-.08,1.24Z" transform="translate(-667.32 -272.36)"/><path class="cls-6" d="M783.17,318.83c-.24.37-3.66,1.32-.41.95C783,319.4,785.58,318.94,783.17,318.83Z" transform="translate(-667.32 -272.36)"/><polygon class="cls-6" points="77.6 55.67 78.19 55.34 77.17 53.57 77.6 55.67"/><path class="cls-6" d="M721,352.77c2.36-1.87-.47-1.38,1.82-3,.13-.86-1.87,1.29-1.68.48C720.26,352,719.42,352.5,721,352.77Z" transform="translate(-667.32 -272.36)"/><path class="cls-6" d="M721.12,350.29a9.64,9.64,0,0,0,.4-.9A4,4,0,0,0,721.12,350.29Z" transform="translate(-667.32 -272.36)"/><path class="cls-6" d="M889.88,392.9c0-.73,0-1.45-.06-2.18l-.34,1.49C889.62,392.44,889.75,392.67,889.88,392.9Z" transform="translate(-667.32 -272.36)"/><path class="cls-6" d="M887.48,389.29l1.14-.81-1.44-.93C887.35,388,887.68,388.87,887.48,389.29Z" transform="translate(-667.32 -272.36)"/><path class="cls-6" d="M712.29,460.72l-.34,0c-.14.43.07.82.48,1.61Z" transform="translate(-667.32 -272.36)"/><polygon class="cls-6" points="60.41 208.79 60.1 208.47 59.92 209.9 60.41 208.79"/><path class="cls-6" d="M746,492.52c-.75-.44-1.76-.75-2.48-1.25C745.21,492.09,745.48,493.9,746,492.52Z" transform="translate(-667.32 -272.36)"/><text class="cls-7" transform="matrix(0.97, -0.26, 0.26, 0.97, 61.48, 141.74)">Snake <tspan x="-10.95" y="36">Escape</tspan></text><path class="cls-8" d="M772.41,483a2.65,2.65,0,0,1-.2,1.15,3.08,3.08,0,0,1-.6.9,4.48,4.48,0,0,1-.76.66l-1.24.82a6,6,0,0,1-1,.56,11.76,11.76,0,0,1-1.26.41c-.22.06-.52.16-.91.3s-.67.24-.86.29a1.9,1.9,0,0,1-.93.06,1,1,0,0,1-.64-.51,2.08,2.08,0,0,1-.19-.45.67.67,0,0,1,0-.24c0-.08,0-.17,0-.29a1.82,1.82,0,0,0,0-.33,2.83,2.83,0,0,0,0-.43c-.17-.86-.35-1.62-.53-2.27a17.19,17.19,0,0,0-1-2.94l-.18-.65c-.08-.27-.14-.47-.17-.59a3.77,3.77,0,0,1-.17-1.39,1.2,1.2,0,0,1,.63-.87,2.53,2.53,0,0,0,.87-.06l.29-.1.42-.19c.18-.1.33-.16.43-.21l.32-.11a2.38,2.38,0,0,1,.37-.06,8.29,8.29,0,0,1,.92-.3,6.14,6.14,0,0,1,1.7-.25,3.72,3.72,0,0,1,1.48.26,2.51,2.51,0,0,1,1.11.81,1.58,1.58,0,0,1,.31.62,2.48,2.48,0,0,1,0,1,4.06,4.06,0,0,1-.28,1,3.36,3.36,0,0,1-.39.69,2.69,2.69,0,0,1,1.38.59,4.55,4.55,0,0,1,.7.65,1.75,1.75,0,0,1,.36.72A2.37,2.37,0,0,1,772.41,483Zm-3.7-4.7c-.25-.68-1.18-.8-2.81-.36-.45.12-1,.3-1.61.52a.79.79,0,0,0-.28,0c-.44.11-.56.5-.39,1.15,0,.17.14.44.28.8s.24.63.29.81a2,2,0,0,1,.06.38,11.91,11.91,0,0,0,1.66-.59,12.47,12.47,0,0,0,1.51-.76,3.72,3.72,0,0,0,1-.92A1.26,1.26,0,0,0,768.71,478.34Zm1.72,4.53a.77.77,0,0,0-.48-.52,2.21,2.21,0,0,0-.87-.16,3.5,3.5,0,0,0-.79.08l-1.28.52c-.73.3-1.38.54-1.93.74a.86.86,0,0,0-.17.92,4.76,4.76,0,0,0,.18.5c.08.23.14.41.18.56a1.42,1.42,0,0,1,.06.28,2,2,0,0,0,1,0l.28-.08.37-.12.3-.09a8.14,8.14,0,0,0,2-1,4.28,4.28,0,0,0,1-.78A.86.86,0,0,0,770.43,482.87Z" transform="translate(-667.32 -272.36)"/><path class="cls-8" d="M779.24,472.5a.69.69,0,0,1,.2.31.75.75,0,0,1,0,.42c0,.15-.13.34-.24.59a3,3,0,0,0-.2.56c-.13.68-.3,1.39-.49,2.13l-.57,2.26c-.19.76-.36,1.52-.51,2.26s-.28,1.56-.39,2.46c0,.14,0,.36,0,.66a3.45,3.45,0,0,1-.06.72,1,1,0,0,1-.24.48,1.18,1.18,0,0,1-.59.32c-.85.09-1.34-.08-1.46-.52a.82.82,0,0,1,0-.24,11.57,11.57,0,0,1,.32-1.13,7.64,7.64,0,0,0,.27-.88c.09-.35.16-.7.22-1s.12-.74.18-1.18l.12-.88a5.3,5.3,0,0,1-.87-.47c-.28-.2-.7-.51-1.25-.94l-1.2-.93a10.41,10.41,0,0,0-.86-.6,1.93,1.93,0,0,1-.85-1,.94.94,0,0,1,0-.41,1,1,0,0,1,.74-.81.64.64,0,0,1,.48.06,4.46,4.46,0,0,1,.56.43l1,.88a12.17,12.17,0,0,0,1.49,1.14,4.1,4.1,0,0,0,1.29.54q.22-.72.39-1.41c.12-.46.26-1,.43-1.7s.32-1.29.47-1.83a.71.71,0,0,1,.55-.49,1.35,1.35,0,0,1,.6,0A1.17,1.17,0,0,1,779.24,472.5Z" transform="translate(-667.32 -272.36)"/><path class="cls-8" d="M797.78,475.53a8.55,8.55,0,0,1,1.08,2.19,1.6,1.6,0,0,1,0,1,1.07,1.07,0,0,1-.8.58,1,1,0,0,1-.8-.38,4.87,4.87,0,0,1-.59-1.18,8.32,8.32,0,0,0-.6-1.28c-.39-.66-.82-1.32-1.28-2a6.42,6.42,0,0,0-1.15-1.35,6.4,6.4,0,0,0-.16,1c0,.36,0,.7,0,1s0,.79,0,1.35,0,.92,0,1.07a8.47,8.47,0,0,0,.07.88,5.48,5.48,0,0,1,.05.82,1,1,0,0,1-.23.55,1.63,1.63,0,0,1-.71.43,1.36,1.36,0,0,1-.77-.5,9,9,0,0,1-.71-1.16,7.86,7.86,0,0,0-.7-1.15,9,9,0,0,1-.62-.94,7.5,7.5,0,0,0-.62-.92,1.08,1.08,0,0,0-.61-.38,12.62,12.62,0,0,0-.07,4.09c0,.15.07.4.15.76a3,3,0,0,1,.11.85,1.24,1.24,0,0,1-.26.62,2,2,0,0,1-.49.22,1,1,0,0,1-1-.3,1.18,1.18,0,0,1-.34-.58,3.76,3.76,0,0,1,0-1.21c.06-.57.09-.95.09-1.15,0-.49,0-1,0-1.48s0-.92,0-1.26,0-.65,0-.95,0-.76,0-1.39c0-.17,0-.44,0-.8a7.44,7.44,0,0,1,0-.9,2.06,2.06,0,0,1,.16-.67,1.48,1.48,0,0,1,.45-.55,2.88,2.88,0,0,1,.86-.47.54.54,0,0,1,.46,0,.85.85,0,0,1,.3.38c.09.17.17.35.26.52a14.5,14.5,0,0,0,.69,1.52c.29.57.59,1.11.91,1.64a10.25,10.25,0,0,0,.81,1.19,4.57,4.57,0,0,0,.35-1.25,9.87,9.87,0,0,0,.06-1.34c0-.47,0-1,0-1.46A6.26,6.26,0,0,1,792,470a.86.86,0,0,1,.66-1.22,3.14,3.14,0,0,1,.87-.08,3.55,3.55,0,0,1,.54.7c.18.3.38.67.61,1.11s.38.74.46.88c.27.45.52.86.75,1.22l.88,1.35Z" transform="translate(-667.32 -272.36)"/><path class="cls-8" d="M809.06,471.42a6.31,6.31,0,0,1-.14,1.66,5,5,0,0,1-.54,1.41,5.1,5.1,0,0,1-.92,1.21,7.81,7.81,0,0,1-3.19,1.88,5.08,5.08,0,0,1-2.79,0,3.78,3.78,0,0,1-1.43-.72,6.63,6.63,0,0,1-1.15-1.33,5.77,5.77,0,0,1-.84-1.72,5,5,0,0,1-.17-1.43,8.71,8.71,0,0,1,.13-1.6,5.38,5.38,0,0,1,.43-1.32,5.1,5.1,0,0,1,.75-1.14,7.8,7.8,0,0,1,1.14-1,6.86,6.86,0,0,1,2.28-1.21,4.93,4.93,0,0,1,2.66.07,4.77,4.77,0,0,1,2.27,1.34,5.42,5.42,0,0,1,1.27,2.32A7.83,7.83,0,0,1,809.06,471.42Zm-1.67-.24a5,5,0,0,0-.13-.7,3.53,3.53,0,0,0-.92-1.61,3.71,3.71,0,0,0-1.65-.93,3.36,3.36,0,0,0-1.91,0,3.75,3.75,0,0,0-1.42.75A5.18,5.18,0,0,0,800.2,470a5.63,5.63,0,0,0-.7,1.57,3.05,3.05,0,0,0,0,1.53,4.27,4.27,0,0,0,.24.62,3.29,3.29,0,0,0,.69,1,4.27,4.27,0,0,0,1,.67,3.61,3.61,0,0,0,2.57.27,4.65,4.65,0,0,0,1.78-1,4.79,4.79,0,0,0,1.29-1.59A3.48,3.48,0,0,0,807.39,471.18Z" transform="translate(-667.32 -272.36)"/><path class="cls-8" d="M820.82,472.62a.85.85,0,0,1-.65.63,2.31,2.31,0,0,1-.81,0,.81.81,0,0,1-.59-.36,2.69,2.69,0,0,1-.38-.88c-.06-.2-.13-.52-.22-1s-.17-.81-.24-1.07a3,3,0,0,0-.11-.37,2.15,2.15,0,0,0-.6.11c-.27.07-.77.24-1.47.48-.12,0-.45.15-1,.32s-.94.33-1.23.46a3.28,3.28,0,0,0-.73.47,8.1,8.1,0,0,0,.28,1.46c.06.21.14.48.25.81a1.22,1.22,0,0,1,0,.9,1.12,1.12,0,0,1-.71.46.91.91,0,0,1-.49,0,.54.54,0,0,1-.31-.25,1.78,1.78,0,0,1-.21-.51c0-.06-.1-.45-.24-1.16s-.39-1.78-.71-3a37.08,37.08,0,0,0-1.65-4.91.7.7,0,0,1,.18-.66,1.41,1.41,0,0,1,.7-.43.92.92,0,0,1,.52,0,.74.74,0,0,1,.44.35,3.87,3.87,0,0,1,.28.63c.09.28.16.48.19.6.07.28.16.66.26,1.14s.19.86.26,1.12.23.74.35,1.06l.75-.18c.73-.2,1.5-.45,2.31-.76a10,10,0,0,0,1.83-.86,8.5,8.5,0,0,0-.24-1.15,11.18,11.18,0,0,0-1.21-2.9,1.19,1.19,0,0,1,0-.43.57.57,0,0,1,.14-.28,1.88,1.88,0,0,1,.34-.29l.31-.22a1.17,1.17,0,0,1,1,0,1.36,1.36,0,0,1,.47.8,3,3,0,0,1,.09.38c0,.14.06.34.1.61s.08.48.11.63.07.29.11.45c.22.7.39,1.23.5,1.61s.24.84.4,1.38.29,1.06.43,1.54l.37,1.28a2.87,2.87,0,0,0,.26.46l.37.6a2,2,0,0,1,.19.46A.68.68,0,0,1,820.82,472.62Z" transform="translate(-667.32 -272.36)"/><path class="cls-8" d="M830.67,469.81a1,1,0,0,1-.37.42,1.89,1.89,0,0,1-.57.28.8.8,0,0,1-.4,0,1.11,1.11,0,0,1-.35-.2,2.35,2.35,0,0,1-.26-.39,3.86,3.86,0,0,0-.29-.47A2.93,2.93,0,0,0,828,469a2.12,2.12,0,0,0-.47-.33l-.44-.26c-.32.15-.81.35-1.47.59s-1.18.45-1.58.64a4,4,0,0,0-1,.69c0,.11-.12.31-.25.6a3.5,3.5,0,0,0-.25.76,2,2,0,0,0,0,.73.68.68,0,0,1-.56.72,1.55,1.55,0,0,1-.65,0,3.88,3.88,0,0,1-.52-.14.42.42,0,0,1-.22-.29,1.5,1.5,0,0,1,0-.43,9.27,9.27,0,0,0,.43-1.63c.09-.58.16-1.16.21-1.76l.18-2.16c.07-.85.17-1.59.28-2.22.07-.38.13-.81.2-1.28s.13-.87.19-1.21.11-.64.17-.89a.85.85,0,0,1,.29-.42,1.23,1.23,0,0,1,.51-.26,1.09,1.09,0,0,1,.67,0,.84.84,0,0,1,.51.4c.34.53.63.95.85,1.25s.6.78,1.11,1.42.94,1.21,1.28,1.69l.8,1.05c.37.47.65.83.84,1.09s.38.55.57.87a4.66,4.66,0,0,0,.41.45c.18.18.31.33.41.44a1.09,1.09,0,0,1,.19.35A.62.62,0,0,1,830.67,469.81Zm-4.4-3.1a5.41,5.41,0,0,0-.74-1.17,10.72,10.72,0,0,0-.95-1c-.31-.3-.59-.55-.83-.75a9.28,9.28,0,0,0-.6,3.7,2,2,0,0,0,1.15-.07,10.51,10.51,0,0,0,1-.35C825.77,466.87,826.08,466.76,826.27,466.71Z" transform="translate(-667.32 -272.36)"/><path class="cls-8" d="M842.9,466.35a.94.94,0,0,1-.13.43,1.05,1.05,0,0,1-.28.31,2,2,0,0,1-.5.22,1,1,0,0,1-.65,0,.82.82,0,0,1-.45-.48,6.72,6.72,0,0,0-.15-.87,3.2,3.2,0,0,0-.22-.58,6.88,6.88,0,0,0-.36-.65c-.16-.27-.28-.48-.35-.62-.36-.68-.65-1.21-.88-1.59a2.9,2.9,0,0,0-.75-.85,6.51,6.51,0,0,0-.3,1.46c0,.53-.08,1.19-.09,2,0,.06,0,.28,0,.65a6.1,6.1,0,0,0,0,.88,4.85,4.85,0,0,0,.14.75,1.15,1.15,0,0,1-.37.73,1.76,1.76,0,0,1-.77.46.85.85,0,0,1-.5,0,1.32,1.32,0,0,1-.48-.46,8.53,8.53,0,0,1-.51-1c-.2-.44-.41-.86-.61-1.25a13.28,13.28,0,0,0-.74-1.22c-.14-.19-.32-.47-.56-.83l-.52-.78a6.73,6.73,0,0,0-.28,1.09c-.06.36-.1.68-.12,1s0,.72-.05,1.26,0,1-.06,1.38a5.72,5.72,0,0,0,0,.9,7.41,7.41,0,0,1,0,.88,1.22,1.22,0,0,1-.17.56.69.69,0,0,1-.42.33.86.86,0,0,1-.62-.08,1.14,1.14,0,0,1-.53-.49,1.31,1.31,0,0,1-.12-.28,1.07,1.07,0,0,1,0-.5,7.2,7.2,0,0,1,.15-.71,4,4,0,0,0,.13-.76c0-.44,0-.83,0-1.17v-1.51c0-.66,0-1.2,0-1.62s0-.78,0-1.11a5.59,5.59,0,0,0,0-1c0-.34-.08-.67-.11-1a2.48,2.48,0,0,1,.05-.84,1.35,1.35,0,0,1,.4-.64l.58-.14a2.33,2.33,0,0,1,.61-.07.89.89,0,0,1,.51.17,1.23,1.23,0,0,1,.38.56,9.47,9.47,0,0,0,.44,1c.14.25.37.64.7,1.17l.48.84c.16.29.33.56.5.81a2.37,2.37,0,0,0,.48.56,5,5,0,0,0,.29-1c.07-.39.13-.82.17-1.27s.07-.93.1-1.41,0-.87,0-1.2c-.06-.13-.09-.23-.11-.28a1.27,1.27,0,0,1,.39-1.37.58.58,0,0,1,.24-.29,1.17,1.17,0,0,1,.42-.2.65.65,0,0,1,.69.13c.51.85.94,1.63,1.3,2.33s.84,1.67,1.46,2.93c.18.36.44.82.77,1.35s.59.94.75,1.23a3.55,3.55,0,0,1,.37.92A2.75,2.75,0,0,1,842.9,466.35Z" transform="translate(-667.32 -272.36)"/><path class="cls-8" d="M850.73,461.72a1.12,1.12,0,0,1,.22-.11.59.59,0,0,1,.53.11,1,1,0,0,1,.33.53,1.23,1.23,0,0,1,0,.78,1,1,0,0,1-.57.57c-1,.4-1.74.71-2.22.92s-1,.46-1.55.75-1.13.63-1.75,1a1.94,1.94,0,0,1-.49.22,1.42,1.42,0,0,1-1-.08,1.08,1.08,0,0,1-.6-.72,15.07,15.07,0,0,0-.53-2.88c-.1-.39-.2-.73-.3-1s-.28-.89-.55-1.76-.46-1.48-.56-1.83-.18-.71-.23-.92a.41.41,0,0,1-.29-.06A.72.72,0,0,1,841,457l-.05-.19a.38.38,0,0,0-.09-.18,1.11,1.11,0,0,1,.36-.83,2.58,2.58,0,0,1,1-.46l.62-.14.57-.14c.43-.11.78-.22,1.06-.32l1.21-.44c.52-.19.89-.32,1.1-.38a3.27,3.27,0,0,1,1.12-.12,1,1,0,0,1,.88.76,2.41,2.41,0,0,1,.08.48.53.53,0,0,1-.44.57l-.54.1c-.28,0-.52.09-.73.14l-.33.11-1,.33-1.06.32a8,8,0,0,0-.77.29,2.35,2.35,0,0,0-.64.41q.1.31.15.48c0,.13.08.32.14.57s.1.44.13.56a2.62,2.62,0,0,0,.35.82c.45-.12.93-.28,1.46-.48l1.57-.59c.53-.2,1-.35,1.46-.48a3.16,3.16,0,0,1,.62-.27c.35-.1.58.08.7.53a.86.86,0,0,1-.09.74,1.54,1.54,0,0,1-.56.51,8.19,8.19,0,0,1-.91.42l-1.18.45-.86.36c-.3.13-.6.28-.89.44a5.6,5.6,0,0,0-.81.52c0,.07,0,.18,0,.34a4.58,4.58,0,0,0,.11.53,2.31,2.31,0,0,0,.62,1.15,9,9,0,0,0,1.1-.38c.39-.15.92-.37,1.58-.66l1.56-.68Q850.12,461.93,850.73,461.72Z" transform="translate(-667.32 -272.36)"/><path class="cls-8" d="M862,454.5a4.48,4.48,0,0,1,.45,1.09,5.22,5.22,0,0,1-.07,2.56,6,6,0,0,1-.33,1,4.25,4.25,0,0,1-.47.78,6,6,0,0,1-.57.67c-.21.21-.49.48-.85.8a7.39,7.39,0,0,1-1.3,1,8.72,8.72,0,0,1-1.28.61c-.41.15-1,.33-1.66.53a2.77,2.77,0,0,1-.8.09,1.37,1.37,0,0,1-.7-.21,1,1,0,0,1-.43-.61,1.6,1.6,0,0,1-.05-.31c-.07-.15-.16-.38-.28-.71s-.23-.65-.33-1-.08-.34-.1-.43-.12-.54-.23-.94-.2-.72-.39-1.28-.32-1-.42-1.41l-.12-.46a.64.64,0,0,0-.28-.36.92.92,0,0,1-.32-.33,2.84,2.84,0,0,1-.29-.68c-.24-.89.16-1.48,1.19-1.75a11,11,0,0,1,1.82-.61c.82-.21,1.43-.35,1.84-.43a6.4,6.4,0,0,1,1.34-.1,5.21,5.21,0,0,1,1.53.29,9.41,9.41,0,0,1,1.33.53,4.13,4.13,0,0,1,1,.68A4.61,4.61,0,0,1,862,454.5Zm-1.77.57a2.54,2.54,0,0,0-.88-.61,3.82,3.82,0,0,0-1.07-.27c-.38,0-.83-.07-1.36-.09a5.09,5.09,0,0,0-1.44.2l-.64.19c-.28.09-.49.16-.63.19l-.52.12c.07.19.14.44.23.76s.16.63.26,1.12.19.9.28,1.22.25.88.44,1.48.35,1.15.49,1.66a3.85,3.85,0,0,0,1.72-.07,4.49,4.49,0,0,0,2.07-1.25c.51-.52.88-.91,1.11-1.19a2.78,2.78,0,0,0,.52-1,2.25,2.25,0,0,0,0-1.26A4.34,4.34,0,0,0,860.18,455.07Z" transform="translate(-667.32 -272.36)"/><path class="cls-8" d="M804.36,483.64a.91.91,0,0,1-.06.71,3.16,3.16,0,0,1-.57.72,5,5,0,0,0-.53.58c-.38.55-.74,1.1-1.07,1.67a12.77,12.77,0,0,0-.81,1.61,8.85,8.85,0,0,0,.84.8,10,10,0,0,0,.91.65l.8.48,1.43.75.47.22a5.15,5.15,0,0,1,.48.25,1.6,1.6,0,0,1,.35.28.72.72,0,0,1,.2.33.77.77,0,0,1,0,.4,1.23,1.23,0,0,1-.35.57,1.28,1.28,0,0,1-.57.33.81.81,0,0,1-.69-.08l-1.45-1-1.28-.88c-.26-.18-.6-.39-1-.64s-.86-.48-1.31-.7a1.93,1.93,0,0,0-1.21,1.38,8.36,8.36,0,0,0,.2.91,4.89,4.89,0,0,0,.3.86,9.43,9.43,0,0,1,.49,1.27,1.52,1.52,0,0,1,0,.78.6.6,0,0,1-.48.4l-.51.13a1,1,0,0,1-.42,0,.92.92,0,0,1-.4-.32,2.32,2.32,0,0,1-.28-.66c0-.17-.1-.46-.18-.88s-.16-.75-.23-1c-.12-.46-.27-1-.45-1.69s-.31-1.17-.4-1.5c-.2-.76-.38-1.39-.53-1.9a6.11,6.11,0,0,0-.41-1,7.72,7.72,0,0,1-.39-.94,1.39,1.39,0,0,1,.07-1,2,2,0,0,1,1-.79c.38-.09.65.13.79.67a4.93,4.93,0,0,1,.13.58q.07.41.12.57c.06.25.15.6.26,1.06s.19.78.25,1,.16.57.22.72a1.58,1.58,0,0,0,.69-.45,9.11,9.11,0,0,0,.79-1c.3-.46.51-.77.62-.91a8.08,8.08,0,0,0,.61-1l.54-1a5.57,5.57,0,0,1,.59-.87,3.81,3.81,0,0,0,.33-.51,2.86,2.86,0,0,1,.32-.52.67.67,0,0,1,.37-.24.66.66,0,0,1,.19,0A1.22,1.22,0,0,1,804.36,483.64Z" transform="translate(-667.32 -272.36)"/><path class="cls-8" d="M817.24,486.24a6.76,6.76,0,0,1-.14,1.66,5.08,5.08,0,0,1-.54,1.42,5.26,5.26,0,0,1-.92,1.2,8.11,8.11,0,0,1-1.33,1.05,7.55,7.55,0,0,1-1.86.83,5.08,5.08,0,0,1-2.79,0,3.78,3.78,0,0,1-1.43-.72,6.32,6.32,0,0,1-1.15-1.33,5.61,5.61,0,0,1-.84-1.71,5.05,5.05,0,0,1-.17-1.43,8.75,8.75,0,0,1,.13-1.61,5.38,5.38,0,0,1,.43-1.32,5.1,5.1,0,0,1,.75-1.14,7.8,7.8,0,0,1,1.14-1,6.64,6.64,0,0,1,2.28-1.2,5.24,5.24,0,0,1,4.93,1.4,5.28,5.28,0,0,1,1.26,2.33A7.08,7.08,0,0,1,817.24,486.24Zm-1.67-.24a3.94,3.94,0,0,0-.14-.7,3.43,3.43,0,0,0-.91-1.61,3.71,3.71,0,0,0-1.65-.93,3.45,3.45,0,0,0-1.91,0,3.86,3.86,0,0,0-1.43.75,5.52,5.52,0,0,0-1.15,1.36,5.35,5.35,0,0,0-.7,1.57,3.05,3.05,0,0,0,0,1.53,4.27,4.27,0,0,0,.24.62,3.29,3.29,0,0,0,.69,1,4.27,4.27,0,0,0,1,.67,3.51,3.51,0,0,0,2.57.27,4.73,4.73,0,0,0,1.78-1,4.82,4.82,0,0,0,1.28-1.58A3.44,3.44,0,0,0,815.57,486Z" transform="translate(-667.32 -272.36)"/><path class="cls-8" d="M828,486.45a2.22,2.22,0,0,1,.16.4.88.88,0,0,1-.08.77,2,2,0,0,1-.69.56l-.18.08a.73.73,0,0,1-.63-.13,4.25,4.25,0,0,1-.72-.74,8.07,8.07,0,0,0-.6-.68,17.72,17.72,0,0,0-4.88-3.17,3.79,3.79,0,0,0,.17,1.94c.08.28.21.7.39,1.27s.32,1,.4,1.32.12.44.14.56a1,1,0,0,1-.15.8,1.39,1.39,0,0,1-.78.47,1.61,1.61,0,0,1-.41.08,1,1,0,0,1-.36-.49,4,4,0,0,1,0-.69,4.75,4.75,0,0,0-.13-1c-.07-.27-.16-.64-.28-1.13s-.23-.94-.32-1.35-.2-.84-.31-1.26-.2-.82-.29-1.16c-.14-.53-.29-1-.45-1.51,0-.09-.09-.23-.16-.43a2.52,2.52,0,0,1-.17-.47,1,1,0,0,1,.18-1,1.35,1.35,0,0,1,.55-.33,1,1,0,0,1,.72.08,2.37,2.37,0,0,1,.64.42c.19.17.46.43.83.79a8.48,8.48,0,0,0,.86.76l1.09.81,1.2.89a7.81,7.81,0,0,0,.9.55,1.75,1.75,0,0,0,.74.21,12.9,12.9,0,0,0-.42-1.73,35.3,35.3,0,0,0-1.16-3.55,1,1,0,0,1,.2-.89,1.51,1.51,0,0,1,.79-.57.88.88,0,0,1,.56,0,.71.71,0,0,1,.39.47,2.86,2.86,0,0,1,0,.67,3.19,3.19,0,0,0,0,.64c0,.05,0,.13.07.24a1.32,1.32,0,0,1,.07.23q.12.43.21.81c0,.24.14.62.25,1.14s.2.87.24,1.06l.21.82.15.54c.25.84.42,1.39.52,1.68A11.94,11.94,0,0,0,828,486.45Z" transform="translate(-667.32 -272.36)"/><path class="cls-8" d="M836.88,482.51a1.17,1.17,0,0,1,.23-.11.6.6,0,0,1,.53.11,1,1,0,0,1,.32.53,1.16,1.16,0,0,1,0,.78,1,1,0,0,1-.57.57c-1,.4-1.74.71-2.23.92s-1,.46-1.54.75-1.13.63-1.75,1a2.12,2.12,0,0,1-.49.22,1.42,1.42,0,0,1-1-.08,1,1,0,0,1-.6-.72,15.07,15.07,0,0,0-.53-2.88c-.1-.39-.2-.73-.3-1s-.28-.89-.55-1.76-.46-1.48-.56-1.83-.19-.71-.24-.92a.38.38,0,0,1-.28-.06.58.58,0,0,1-.13-.25l0-.19a.38.38,0,0,0-.09-.18,1,1,0,0,1,.36-.83,2.51,2.51,0,0,1,1-.46l.61-.14.58-.14c.42-.11.78-.22,1.06-.32l1.2-.44c.52-.19.89-.32,1.11-.38a3.24,3.24,0,0,1,1.11-.12,1,1,0,0,1,.89.76,1.85,1.85,0,0,1,.07.48.52.52,0,0,1-.44.57l-.54.1c-.27,0-.52.09-.73.14l-.33.11-1,.33-1.07.32a7.87,7.87,0,0,0-.76.29,2.69,2.69,0,0,0-.65.41c.08.21.13.37.16.48s.08.32.13.57.1.44.14.57a2.35,2.35,0,0,0,.35.81c.44-.12.93-.28,1.46-.48l1.57-.59c.52-.19,1-.35,1.46-.47a2.61,2.61,0,0,1,.62-.28c.34-.1.58.08.7.53a.86.86,0,0,1-.09.74,1.62,1.62,0,0,1-.56.51,7.65,7.65,0,0,1-.92.42l-1.18.45-.85.36c-.3.13-.6.28-.89.44a6.31,6.31,0,0,0-.82.52c0,.07,0,.18.05.34a3.14,3.14,0,0,0,.11.53,2.24,2.24,0,0,0,.62,1.15,9.68,9.68,0,0,0,1.1-.38c.39-.15.92-.37,1.57-.66l1.57-.68C836.08,482.8,836.48,482.65,836.88,482.51Z" transform="translate(-667.32 -272.36)"/></g></svg>