<?xml version="1.0" encoding="utf-8"?>
<!-- Generator: Adobe Illustrator 24.3.0, SVG Export Plug-In . SVG Version: 6.00 Build 0)  -->
<svg version="1.1" id="Layer_1" xmlns="http://www.w3.org/2000/svg" xmlns:xlink="http://www.w3.org/1999/xlink" x="0px" y="0px"
	 viewBox="0 0 512 512" style="enable-background:new 0 0 512 512;" xml:space="preserve">
<style type="text/css">
	.st0{stroke:#FFFFFF;stroke-width:7;stroke-miterlimit:10;}
</style>
<g>
	<g>
		<path class="st0" d="M447.2,205v-70.5c0-8.8-7.2-16-16-16c-34,0-64.2,20.9-75,55.3C228.3,41.9,0,132.8,0,319.5c0,0.1,0,0.1,0,0.2
			c0.1,44.6,36.4,80.8,81,80.8h171.2c8.8,0,16-7.2,16-16s-7.2-16-16-16H81.1c-21.4,0-39.7-13.8-46.4-33H265v-16
			c0-31.5-25.6-57.1-57.1-57.1c-8.8,0-16-7.2-16-16s7.2-16,16-16c49.1,0,89.1,40,89.1,89.1v16h199c8.8,0,16-7.2,16-16
			C512,270.8,486,228.3,447.2,205z M438.2,281.1c-11.7,0-21.2-9.5-21.2-21.2c0-11.7,9.5-21.2,21.2-21.2s21.2,9.5,21.2,21.2
			C459.4,271.6,449.9,281.1,438.2,281.1z"/>
	</g>
</g>
</svg>
