<svg id="Layer_1" data-name="Layer 1" xmlns="http://www.w3.org/2000/svg" viewBox="0 0 512 289.08"><defs><style>.cls-1{fill:#a82f2f;}</style></defs><path class="cls-1" d="M447.24,205V134.55a16,16,0,0,0-16-16c-34,0-64.18,20.93-75,55.26C228.3,41.92,0,132.84,0,319.5c0,.07,0,.14,0,.21a81.13,81.13,0,0,0,81,80.83h171.2a16,16,0,0,0,0-32H81.05a49.13,49.13,0,0,1-46.35-33H265v-16a57.12,57.12,0,0,0-57.06-57.05,16,16,0,0,1,0-32A89.16,89.16,0,0,1,297,319.49v16H496a16,16,0,0,0,16-16A133.47,133.47,0,0,0,447.24,205Zm-9,76.07A21.17,21.17,0,1,1,459.4,259.9,21.16,21.16,0,0,1,438.23,281.07Z" transform="translate(0 -111.46)"/></svg>