<?xml version="1.0" encoding="utf-8"?>
<!-- Generator: Adobe Illustrator 24.3.0, SVG Export Plug-In . SVG Version: 6.00 Build 0)  -->
<svg version="1.1" id="Layer_1" xmlns="http://www.w3.org/2000/svg" xmlns:xlink="http://www.w3.org/1999/xlink" x="0px" y="0px"
	 viewBox="0 0 512 289.1" style="enable-background:new 0 0 512 289.1;" xml:space="preserve">
<style type="text/css">
	.st0{stroke:#FFFFFF;stroke-width:10;stroke-miterlimit:10;}
</style>
<path class="st0" d="M447.2,93.5V23.1c0-8.8-7.2-16-16-16c-34,0-64.2,20.9-75,55.3C228.3-69.5,0,21.4,0,208c0,0.1,0,0.1,0,0.2
	C0.2,252.8,36.4,289,81,289h171.2c8.8,0,16-7.2,16-16s-7.2-16-16-16H81.1c-20.9,0-39.5-13.3-46.3-33H265v-16c0-31.5-25.6-57-57.1-57
	c-8.8,0-16-7.2-16-16s7.2-16,16-16c49.1,0.1,89,39.9,89.1,89v16h199c8.8,0,16-7.2,16-16C512,161.1,487.4,117.7,447.2,93.5z
	 M438.2,169.6c-11.7,0-21.2-9.5-21.2-21.2s9.5-21.2,21.2-21.2s21.2,9.5,21.2,21.2l0,0C459.4,160.1,449.9,169.6,438.2,169.6
	L438.2,169.6L438.2,169.6z"/>
</svg>
