<svg id="Layer_1" data-name="Layer 1" xmlns="http://www.w3.org/2000/svg" viewBox="0 0 297 296.98"><defs><style>.cls-1{fill:#fff;}</style></defs><path class="cls-1" d="M887,688.58c-.66-.36-1.31-.73-2-1.07a9.83,9.83,0,0,1,3.92-18.67c.67,0,1.35,0,2,0q70.26,0,140.52.1a13.64,13.64,0,0,1,7.72,2.39c5.54,4.19,4.53,12.66-1.54,16-.73.41-1.45.83-2.17,1.25Z" transform="translate(-811 -391.6)"/><path class="cls-1" d="M811,453.65a6.52,6.52,0,0,0,.58-.93c3.13-7.22,10.93-9,16.52-3.53q19.23,18.9,38.14,38.13c4.28,4.32,4.25,10.3.25,14.27s-10,3.88-14.27-.39q-19-18.88-37.9-38c-1.37-1.38-2.23-3.29-3.32-4.95Z" transform="translate(-811 -391.6)"/><path class="cls-1" d="M862.38,578.05c1.35-24.72,10.48-46.13,27.63-64A96,96,0,0,1,946,485c24.92-3.8,48.06,1.2,69.17,14.92A97.26,97.26,0,0,1,1053,546a99.06,99.06,0,0,1,7.11,35.86c.09,5.75-3.48,10.1-8.88,10.61-5.6.53-10-3.09-10.79-8.94-1-7.34-1.32-14.88-3.23-22-5.92-21.93-19.27-38.39-39.37-48.81-24.08-12.49-48.78-12.69-72.88-.23-23.64,12.22-37.59,32-42,58.36-.68,4.09-.77,8.26-1.13,12.4-.48,5.49-4.62,9.37-9.93,9.28a9.84,9.84,0,0,1-9.74-9.56C862.1,581.34,862.3,579.69,862.38,578.05Z" transform="translate(-811 -391.6)"/><path class="cls-1" d="M961.54,607.75q46.25,0,92.51,0a22.83,22.83,0,0,1,4.9.33,9.85,9.85,0,0,1,.52,18.92,13.7,13.7,0,0,1-3.71.54q-94.54,0-189.09,0c-7,0-11.56-5.12-10.56-11.52a9.6,9.6,0,0,1,8.57-8.15c1.34-.13,2.7-.13,4.05-.13Z" transform="translate(-811 -391.6)"/><path class="cls-1" d="M951.31,428.55c0-8.69,0-17.38,0-26.08,0-6.49,4-10.88,9.85-10.87s9.89,4.49,9.9,10.9q0,26.36,0,52.73c0,5.69-3.61,9.89-8.76,10.52a9.79,9.79,0,0,1-10.58-7.12,15.34,15.34,0,0,1-.39-4C951.3,445.93,951.31,437.24,951.31,428.55Z" transform="translate(-811 -391.6)"/><path class="cls-1" d="M1055.66,487c.67-1.24,1.49-4,3.25-5.77,10.52-10.8,21.21-21.44,31.94-32,4.32-4.26,10.31-4.21,14.25-.21s3.91,9.91-.39,14.25q-15.8,16-31.78,31.78c-3.44,3.42-7.5,4.19-11.39,2.35S1055.88,492.59,1055.66,487Z" transform="translate(-811 -391.6)"/></svg>